<mxfile host="Electron" agent="Mozilla/5.0 (Macintosh; Intel Mac OS X 10_15_7) AppleWebKit/537.36 (KHTML, like Gecko) draw.io/26.2.15 Chrome/134.0.6998.205 Electron/35.2.1 Safari/537.36" version="26.2.15">
  <diagram name="Page-1" id="e5cqB_uf9mSFRleFC-Fg">
    <mxGraphModel dx="1018" dy="748" grid="0" gridSize="10" guides="1" tooltips="1" connect="1" arrows="1" fold="1" page="1" pageScale="1" pageWidth="827" pageHeight="1169" math="0" shadow="0">
      <root>
        <mxCell id="0" />
        <mxCell id="1" parent="0" />
        <mxCell id="aUwqBPxb8B65Dzr2mXEr-1" value="AWS Cloud" style="points=[[0,0],[0.25,0],[0.5,0],[0.75,0],[1,0],[1,0.25],[1,0.5],[1,0.75],[1,1],[0.75,1],[0.5,1],[0.25,1],[0,1],[0,0.75],[0,0.5],[0,0.25]];outlineConnect=0;gradientColor=none;html=1;whiteSpace=wrap;fontSize=12;fontStyle=0;container=1;pointerEvents=0;collapsible=0;recursiveResize=0;shape=mxgraph.aws4.group;grIcon=mxgraph.aws4.group_aws_cloud;strokeColor=#232F3E;fillColor=none;verticalAlign=top;align=left;spacingLeft=30;fontColor=#232F3E;dashed=0;" vertex="1" parent="1">
          <mxGeometry x="150" y="150" width="570" height="440" as="geometry" />
        </mxCell>
        <mxCell id="aUwqBPxb8B65Dzr2mXEr-2" value="VPC - 10.0.0.0/16" style="points=[[0,0],[0.25,0],[0.5,0],[0.75,0],[1,0],[1,0.25],[1,0.5],[1,0.75],[1,1],[0.75,1],[0.5,1],[0.25,1],[0,1],[0,0.75],[0,0.5],[0,0.25]];outlineConnect=0;gradientColor=none;html=1;whiteSpace=wrap;fontSize=12;fontStyle=0;container=1;pointerEvents=0;collapsible=0;recursiveResize=0;shape=mxgraph.aws4.group;grIcon=mxgraph.aws4.group_vpc2;strokeColor=#8C4FFF;fillColor=none;verticalAlign=top;align=left;spacingLeft=30;fontColor=#AAB7B8;dashed=0;" vertex="1" parent="aUwqBPxb8B65Dzr2mXEr-1">
          <mxGeometry x="50" y="40" width="360" height="360" as="geometry" />
        </mxCell>
        <mxCell id="aUwqBPxb8B65Dzr2mXEr-6" value="Public subnet - 10.0.1.0/24" style="points=[[0,0],[0.25,0],[0.5,0],[0.75,0],[1,0],[1,0.25],[1,0.5],[1,0.75],[1,1],[0.75,1],[0.5,1],[0.25,1],[0,1],[0,0.75],[0,0.5],[0,0.25]];outlineConnect=0;gradientColor=none;html=1;whiteSpace=wrap;fontSize=12;fontStyle=0;container=1;pointerEvents=0;collapsible=0;recursiveResize=0;shape=mxgraph.aws4.group;grIcon=mxgraph.aws4.group_security_group;grStroke=0;strokeColor=#7AA116;fillColor=#F2F6E8;verticalAlign=top;align=left;spacingLeft=30;fontColor=#248814;dashed=0;" vertex="1" parent="aUwqBPxb8B65Dzr2mXEr-2">
          <mxGeometry x="50" y="40" width="240" height="130" as="geometry" />
        </mxCell>
        <mxCell id="aUwqBPxb8B65Dzr2mXEr-8" value="EC2 Instance" style="sketch=0;points=[[0,0,0],[0.25,0,0],[0.5,0,0],[0.75,0,0],[1,0,0],[0,1,0],[0.25,1,0],[0.5,1,0],[0.75,1,0],[1,1,0],[0,0.25,0],[0,0.5,0],[0,0.75,0],[1,0.25,0],[1,0.5,0],[1,0.75,0]];outlineConnect=0;fontColor=#232F3E;fillColor=#ED7100;strokeColor=#ffffff;dashed=0;verticalLabelPosition=bottom;verticalAlign=top;align=center;html=1;fontSize=12;fontStyle=0;aspect=fixed;shape=mxgraph.aws4.resourceIcon;resIcon=mxgraph.aws4.ec2;" vertex="1" parent="aUwqBPxb8B65Dzr2mXEr-6">
          <mxGeometry x="85" y="35" width="60" height="60" as="geometry" />
        </mxCell>
        <mxCell id="aUwqBPxb8B65Dzr2mXEr-7" value="Private subnet - 10.0.2.0/24" style="points=[[0,0],[0.25,0],[0.5,0],[0.75,0],[1,0],[1,0.25],[1,0.5],[1,0.75],[1,1],[0.75,1],[0.5,1],[0.25,1],[0,1],[0,0.75],[0,0.5],[0,0.25]];outlineConnect=0;gradientColor=none;html=1;whiteSpace=wrap;fontSize=12;fontStyle=0;container=1;pointerEvents=0;collapsible=0;recursiveResize=0;shape=mxgraph.aws4.group;grIcon=mxgraph.aws4.group_security_group;grStroke=0;strokeColor=#00A4A6;fillColor=#E6F6F7;verticalAlign=top;align=left;spacingLeft=30;fontColor=#147EBA;dashed=0;" vertex="1" parent="aUwqBPxb8B65Dzr2mXEr-2">
          <mxGeometry x="50" y="220" width="230" height="130" as="geometry" />
        </mxCell>
        <mxCell id="aUwqBPxb8B65Dzr2mXEr-9" value="Auto scaling&amp;nbsp;" style="sketch=0;points=[[0,0,0],[0.25,0,0],[0.5,0,0],[0.75,0,0],[1,0,0],[0,1,0],[0.25,1,0],[0.5,1,0],[0.75,1,0],[1,1,0],[0,0.25,0],[0,0.5,0],[0,0.75,0],[1,0.25,0],[1,0.5,0],[1,0.75,0]];outlineConnect=0;fontColor=#232F3E;fillColor=#ED7100;strokeColor=#ffffff;dashed=0;verticalLabelPosition=bottom;verticalAlign=top;align=center;html=1;fontSize=12;fontStyle=0;aspect=fixed;shape=mxgraph.aws4.resourceIcon;resIcon=mxgraph.aws4.auto_scaling2;" vertex="1" parent="aUwqBPxb8B65Dzr2mXEr-7">
          <mxGeometry x="87" y="34" width="66" height="66" as="geometry" />
        </mxCell>
        <mxCell id="aUwqBPxb8B65Dzr2mXEr-5" value="IAM Role" style="sketch=0;outlineConnect=0;fontColor=#232F3E;gradientColor=none;fillColor=#DD344C;strokeColor=none;dashed=0;verticalLabelPosition=bottom;verticalAlign=top;align=center;html=1;fontSize=12;fontStyle=0;aspect=fixed;pointerEvents=1;shape=mxgraph.aws4.role;" vertex="1" parent="aUwqBPxb8B65Dzr2mXEr-1">
          <mxGeometry x="437" y="130" width="84.7" height="47.78" as="geometry" />
        </mxCell>
        <mxCell id="aUwqBPxb8B65Dzr2mXEr-11" value="S3 Bucket" style="sketch=0;outlineConnect=0;fontColor=#232F3E;gradientColor=none;fillColor=#7AA116;strokeColor=none;dashed=0;verticalLabelPosition=bottom;verticalAlign=top;align=center;html=1;fontSize=12;fontStyle=0;aspect=fixed;pointerEvents=1;shape=mxgraph.aws4.bucket_with_objects;" vertex="1" parent="aUwqBPxb8B65Dzr2mXEr-1">
          <mxGeometry x="441.85" y="271" width="75" height="78" as="geometry" />
        </mxCell>
        <mxCell id="aUwqBPxb8B65Dzr2mXEr-15" value="" style="edgeStyle=orthogonalEdgeStyle;html=1;endArrow=block;elbow=vertical;startArrow=none;endFill=1;strokeColor=#545B64;rounded=0;exitX=1;exitY=0.5;exitDx=0;exitDy=0;exitPerimeter=0;entryX=0.026;entryY=0.314;entryDx=0;entryDy=0;entryPerimeter=0;flowAnimation=1;" edge="1" parent="aUwqBPxb8B65Dzr2mXEr-1" source="aUwqBPxb8B65Dzr2mXEr-8" target="aUwqBPxb8B65Dzr2mXEr-5">
          <mxGeometry width="100" relative="1" as="geometry">
            <mxPoint x="260" y="150" as="sourcePoint" />
            <mxPoint x="360" y="150" as="targetPoint" />
          </mxGeometry>
        </mxCell>
        <mxCell id="aUwqBPxb8B65Dzr2mXEr-16" value="" style="edgeStyle=orthogonalEdgeStyle;html=1;endArrow=block;elbow=vertical;startArrow=none;endFill=1;strokeColor=#545B64;rounded=0;flowAnimation=1;" edge="1" parent="aUwqBPxb8B65Dzr2mXEr-1" source="aUwqBPxb8B65Dzr2mXEr-5" target="aUwqBPxb8B65Dzr2mXEr-11">
          <mxGeometry width="100" relative="1" as="geometry">
            <mxPoint x="440" y="230" as="sourcePoint" />
            <mxPoint x="540" y="230" as="targetPoint" />
          </mxGeometry>
        </mxCell>
        <mxCell id="aUwqBPxb8B65Dzr2mXEr-18" value="" style="edgeStyle=orthogonalEdgeStyle;html=1;endArrow=block;elbow=vertical;startArrow=none;endFill=1;strokeColor=#545B64;rounded=0;exitX=1;exitY=0.25;exitDx=0;exitDy=0;exitPerimeter=0;flowAnimation=1;" edge="1" parent="aUwqBPxb8B65Dzr2mXEr-1" source="aUwqBPxb8B65Dzr2mXEr-9" target="aUwqBPxb8B65Dzr2mXEr-11">
          <mxGeometry width="100" relative="1" as="geometry">
            <mxPoint x="279" y="310" as="sourcePoint" />
            <mxPoint x="379" y="310" as="targetPoint" />
          </mxGeometry>
        </mxCell>
        <mxCell id="aUwqBPxb8B65Dzr2mXEr-4" value="Internet" style="html=1;verticalLabelPosition=bottom;align=center;labelBackgroundColor=#ffffff;verticalAlign=top;strokeWidth=2;strokeColor=#0080F0;shadow=0;dashed=0;shape=mxgraph.ios7.icons.cloud;" vertex="1" parent="1">
          <mxGeometry x="30" y="60" width="80" height="50" as="geometry" />
        </mxCell>
        <mxCell id="aUwqBPxb8B65Dzr2mXEr-12" value="" style="edgeStyle=orthogonalEdgeStyle;html=1;endArrow=block;elbow=vertical;startArrow=block;startFill=1;endFill=1;strokeColor=#545B64;rounded=0;exitX=0.45;exitY=1.02;exitDx=0;exitDy=0;exitPerimeter=0;flowAnimation=1;" edge="1" parent="1" source="aUwqBPxb8B65Dzr2mXEr-4" target="aUwqBPxb8B65Dzr2mXEr-10">
          <mxGeometry width="100" relative="1" as="geometry">
            <mxPoint x="30" y="280" as="sourcePoint" />
            <mxPoint x="66" y="360" as="targetPoint" />
            <Array as="points">
              <mxPoint x="66" y="295" />
            </Array>
          </mxGeometry>
        </mxCell>
        <mxCell id="aUwqBPxb8B65Dzr2mXEr-10" value="Internet Gateway" style="sketch=0;outlineConnect=0;fontColor=#232F3E;gradientColor=none;fillColor=#8C4FFF;strokeColor=none;dashed=0;verticalLabelPosition=bottom;verticalAlign=top;align=center;html=1;fontSize=12;fontStyle=0;aspect=fixed;pointerEvents=1;shape=mxgraph.aws4.internet_gateway;" vertex="1" parent="1">
          <mxGeometry x="170" y="270" width="50" height="50" as="geometry" />
        </mxCell>
        <mxCell id="aUwqBPxb8B65Dzr2mXEr-13" value="" style="edgeStyle=orthogonalEdgeStyle;html=1;endArrow=block;elbow=vertical;startArrow=block;startFill=1;endFill=1;strokeColor=#545B64;rounded=0;entryX=0;entryY=0.5;entryDx=0;entryDy=0;entryPerimeter=0;flowAnimation=1;" edge="1" parent="1" source="aUwqBPxb8B65Dzr2mXEr-10" target="aUwqBPxb8B65Dzr2mXEr-8">
          <mxGeometry width="100" relative="1" as="geometry">
            <mxPoint x="220" y="290" as="sourcePoint" />
            <mxPoint x="320" y="290" as="targetPoint" />
          </mxGeometry>
        </mxCell>
      </root>
    </mxGraphModel>
  </diagram>
</mxfile>
